<?xml version="1.0" encoding="UTF-8"?>
<svg width="16px" height="14px" viewBox="0 0 16 14" version="1.1" xmlns="http://www.w3.org/2000/svg" xmlns:xlink="http://www.w3.org/1999/xlink">
    <!-- Generator: sketchtool 58 (101010) - https://sketch.com -->
    <title>8022A013-4AF2-4DE0-822F-08B0AFDA1B8A</title>
    <desc>Created with sketchtool.</desc>
    <g id="Total-Flow" stroke="none" stroke-width="1" fill="none" fill-rule="evenodd">
        <g id="2.0-Select-States" transform="translate(-24.000000, -40.000000)" fill="#FFFFFF">
            <g id="back-arrow-icon/16px/back-arrow" transform="translate(24.000000, 39.000000)">
                <path d="M6.29229745,1.2934895 C6.68249243,0.902636169 7.31565719,0.90210247 7.70651051,1.29229745 C8.09736384,1.68249242 8.09789754,2.31565718 7.70770256,2.70651051 L7.70770256,2.70651051 L3.42,7 L15,7 C15.5522848,7 16,7.44771525 16,8 C16,8.55228475 15.5522848,9 15,9 L3.39,9 L7.64914988,13.2959133 C8.0080942,13.6579303 8.03340598,14.2252744 7.72671194,14.6162621 L7.64312259,14.710114 C7.25093745,15.0989704 6.61777823,15.0962719 6.22892187,14.7040867 L6.22892187,14.7040867 L0.289886006,8.71421013 C-0.097567444,8.32343991 -0.0964897886,7.69305613 0.292297454,7.30361291 L0.292297454,7.30361291 Z" id="Combined-Shape"></path>
            </g>
        </g>
    </g>
</svg>