<?xml version="1.0" encoding="UTF-8"?>
<svg width="18px" height="18px" viewBox="0 0 18 18" version="1.1" xmlns="http://www.w3.org/2000/svg" xmlns:xlink="http://www.w3.org/1999/xlink">
    <!-- Generator: sketchtool 58 (101010) - https://sketch.com -->
    <title>530AD09B-B5AF-429B-B0A4-7DBDA22DDA0C</title>
    <desc>Created with sketchtool.</desc>
    <g id="Total-Flow" stroke="none" stroke-width="1" fill="none" fill-rule="evenodd">
        <g id="8.0-Add-resources_Extra" transform="translate(-198.000000, -525.000000)" fill="#0048A8">
            <g id="Group-Copy-2" transform="translate(94.000000, 478.000000)">
                <g id="Group-5" transform="translate(49.000000, 44.000000)">
                    <g id="icon/ev-icon/24px/ev" transform="translate(52.000000, 0.000000)">
                        <path d="M8.97396963,5.94955435 C8.62255965,6.44363464 8.5835141,7.07073654 8.85683297,7.60282301 L8.85683297,7.60282301 L8.85683297,7.62182609 L6.94360087,7.7738508 L5.88937093,11.9735332 L18.1106291,11.9735332 L16.9978308,7.79285388 L15.0260304,7.64082918 C15.3579176,7.14674889 15.3969631,6.53865008 15.1236443,6.00656362 C15.1041215,6.00656362 15.1041215,5.98756053 15.1041215,5.98756053 L15.1041215,5.98756053 L17.4273319,6.17759141 C17.9544469,6.21559759 18.3839479,6.55765317 18.5596529,7.03273037 L18.5596529,7.03273037 L19.7114967,11.4034406 L20.3167028,11.4034406 C20.6876356,11.4034406 20.9804772,11.6694838 21,12.0115394 L21,12.0115394 L21,12.9997 C21,13.3417556 20.7071584,13.6268019 20.3362256,13.6268019 L20.3362256,13.6268019 L20.2386117,13.6268019 L20.6290672,16.6292898 C20.6095445,17.4274195 20.0824295,18.1115306 19.340564,18.3775739 L19.340564,18.3775739 L19.340564,20.2968857 C19.340564,20.6769475 19.0281996,21 18.6182213,21 L18.6182213,21 L17.681128,21 C17.2906725,21 16.9587852,20.6959506 16.9587852,20.2968857 L16.9587852,20.2968857 L16.9587852,18.5105955 L7.02169197,18.5105955 L7.02169197,20.2968857 C7.02169197,20.6769475 6.70932755,21 6.29934924,21 L6.29934924,21 L5.36225597,21 C4.97180043,21 4.63991323,20.6959506 4.63991323,20.2968857 L4.63991323,20.2968857 L4.63991323,18.3775739 C3.89804772,18.1115306 3.37093275,17.4084164 3.37093275,16.5912836 L3.37093275,16.5912836 L3.81995662,13.6268019 L3.6637744,13.6268019 C3.29284165,13.6268019 3,13.3607586 3,12.9997 L3,12.9997 L3,12.0115394 C3,11.6504807 3.29284165,11.3654344 3.6637744,11.3654344 L3.6637744,11.3654344 L4.30802603,11.3654344 L5.40130152,7.01372728 C5.55748373,6.51964699 6.00650759,6.17759141 6.53362256,6.13958523 L6.53362256,6.13958523 Z M7.31453362,14.0638729 C6.63123644,14.0638729 6.0845987,14.5959594 6.0845987,15.2610674 C6.0845987,15.9261755 6.63123644,16.458262 7.31453362,16.458262 C7.97830803,16.458262 8.52494577,15.9261755 8.54446855,15.2610674 C8.54446855,14.5959594 7.9978308,14.0638729 7.31453362,14.0638729 Z M16.6464208,14.0638729 C15.9631236,14.0638729 15.4164859,14.5959594 15.4164859,15.2610674 C15.4164859,15.9261755 15.9631236,16.458262 16.6464208,16.458262 C17.329718,16.458262 17.8763557,15.9261755 17.8763557,15.2610674 C17.8763557,14.5959594 17.329718,14.0638729 16.6464208,14.0638729 Z M12.2733189,3.15610043 C12.5075922,2.85205102 12.9956616,3.02307881 12.9761388,3.40314057 L12.9761388,3.40314057 L12.8199566,6.02556671 L13.6203905,6.02556671 C14.2646421,6.02556671 14.6160521,6.72868096 14.2451193,7.22276125 L14.2451193,7.22276125 L11.7071584,10.5292985 C11.472885,10.833348 10.9848156,10.6623202 11.0043384,10.2822584 L11.0043384,10.2822584 L11.1605206,7.65983227 L10.3600868,7.65983227 C9.71583514,7.65983227 9.34490239,6.95671802 9.73535792,6.46263773 L9.73535792,6.46263773 Z" id="Combined-Shape"></path>
                    </g>
                </g>
            </g>
        </g>
    </g>
</svg>