<?xml version="1.0" encoding="UTF-8"?>
<svg width="20px" height="16px" viewBox="0 0 20 16" version="1.1" xmlns="http://www.w3.org/2000/svg" xmlns:xlink="http://www.w3.org/1999/xlink">
    <!-- Generator: sketchtool 58 (101010) - https://sketch.com -->
    <title>3C758583-8BB8-452D-8ACB-97C071527D0F</title>
    <desc>Created with sketchtool.</desc>
    <g id="Total-Flow" stroke="none" stroke-width="1" fill="none" fill-rule="evenodd">
        <g id="8.0-Add-resources_Extra" transform="translate(-197.000000, -371.000000)" fill="#0048A8">
            <g id="Group-Copy" transform="translate(94.000000, 323.000000)">
                <g id="Group-4" transform="translate(71.000000, 44.000000)">
                    <g id="icon/generator-icon/24px/generator" transform="translate(30.000000, 0.000000)">
                        <path d="M18.5263158,4 L5.47368421,4 C3.55789474,4 2,5.58926174 2,7.54362416 L2,19.3557047 C2,19.7208054 2.27368421,20 2.63157895,20 L5.43157895,20 C5.68421053,20 5.89473684,19.8496644 6,19.6348993 L6.69473684,18.1530201 L17.3052632,18.1530201 L18,19.6348993 C18.1052632,19.8496644 18.3368421,20 18.5684211,20 L21.3684211,20 C21.7263158,20 22,19.7208054 22,19.3557047 L22,7.54362416 C22,5.58926174 20.4421053,4 18.5263158,4 Z M9.34736842,12.8053691 L9.34736842,12.8053691 C8.88421053,12.8053691 8.50526316,12.4187919 8.50526316,11.9463087 C8.50526316,11.6456376 8.65263158,11.366443 8.90526316,11.2161074 L10.8631579,9.9704698 C10.9052632,9.92751678 10.9684211,9.92751678 11.0105263,9.92751678 C11.0947368,9.92751678 11.1578947,9.9704698 11.2,10.0134228 C11.2842105,10.0993289 11.3263158,10.2281879 11.2421053,10.357047 L10.0631579,12.3758389 C9.91578947,12.6550336 9.62105263,12.8053691 9.34736842,12.8053691 Z M12.7368421,14.3087248 C12.6526316,14.4375839 12.5052632,14.4805369 12.3789474,14.4590604 L10.6105263,14.0939597 C10.5052632,14.0724832 10.4421053,14.0080537 10.3789474,13.9436242 C10.3368421,13.8577181 10.3157895,13.7718121 10.3368421,13.6644295 C10.3789474,13.4926174 10.5263158,13.3637584 10.6947368,13.3637584 C10.7157895,13.3637584 10.7368421,13.3637584 10.7578947,13.3637584 L12.2736842,13.6644295 L12.2736842,13.642953 C12.5052632,13.2563758 12.6315789,12.8053691 12.6947368,12.3328859 L12.6947368,12.2899329 L12.1473684,12.2899329 C11.9368421,12.2899329 11.7894737,12.1181208 11.7894737,11.9248322 C11.7894737,11.7100671 11.9578947,11.5597315 12.1473684,11.5597315 L12.6947368,11.5597315 L12.6947368,11.5167785 C12.5052632,9.92751678 11.2842105,8.68187919 9.72631579,8.4885906 L9.68421053,8.4885906 L9.68421053,9.04697987 C9.68421053,9.24026846 9.51578947,9.41208054 9.32631579,9.41208054 C9.13684211,9.41208054 8.96842105,9.24026846 8.96842105,9.04697987 L8.96842105,8.4885906 L8.92631579,8.4885906 C8.31578947,8.55302013 7.72631579,8.81073826 7.22105263,9.19731544 L7.17894737,9.24026846 L7.55789474,9.62684564 C7.70526316,9.7557047 7.70526316,10.0134228 7.55789474,10.1422819 C7.43157895,10.2926174 7.17894737,10.2926174 7.05263158,10.1422819 L6.67368421,9.7557047 L6.65263158,9.79865772 C6.27368421,10.2926174 6.02105263,10.8939597 5.93684211,11.5167785 L5.93684211,11.5812081 L6.48421053,11.5812081 C6.69473684,11.5812081 6.84210526,11.7530201 6.84210526,11.9463087 C6.84210526,12.1395973 6.67368421,12.3114094 6.48421053,12.3114094 L5.93684211,12.3114094 L5.93684211,12.3543624 C6,12.8268456 6.12631579,13.2563758 6.35789474,13.6644295 L6.35789474,13.685906 L7.87368421,13.3852349 C8.08421053,13.3422819 8.25263158,13.4711409 8.29473684,13.685906 C8.31578947,13.7718121 8.29473684,13.8791946 8.23157895,13.9651007 C8.18947368,14.0510067 8.10526316,14.0939597 8,14.1154362 L6.25263158,14.4805369 C6.10526316,14.5020134 5.95789474,14.4375839 5.87368421,14.3302013 C5.41052632,13.6214765 5.15789474,12.8053691 5.15789474,11.9677852 C5.15789474,9.62684564 7.01052632,7.73691275 9.30526316,7.73691275 C11.6,7.73691275 13.4526316,9.62684564 13.4526316,11.9677852 C13.4526316,12.8053691 13.2,13.6 12.7368421,14.3087248 Z M18.7368421,10.7651007 L16.5894737,14.3302013 C16.5263158,14.4375839 16.4210526,14.4590604 16.3368421,14.4161074 C16.2526316,14.3946309 16.1684211,14.3302013 16.1894737,14.2013423 L16.3368421,11.7530201 L15.2421053,11.7530201 C15.1578947,11.7530201 15.0947368,11.7100671 15.0526316,11.6456376 C15.0105263,11.5812081 15.0105263,11.495302 15.0526316,11.4308725 L17.1789474,7.86577181 C17.2210526,7.77986577 17.3052632,7.75838926 17.3473684,7.75838926 C17.3684211,7.75838926 17.3894737,7.75838926 17.4105263,7.75838926 C17.4947368,7.77986577 17.5789474,7.8442953 17.5578947,7.97315436 L17.4105263,10.4214765 L18.5052632,10.4214765 C18.5894737,10.4214765 18.6526316,10.4644295 18.6947368,10.5288591 C18.7789474,10.6147651 18.7789474,10.7006711 18.7368421,10.7651007 Z" id="Shape"></path>
                    </g>
                </g>
            </g>
        </g>
    </g>
</svg>