<?xml version="1.0" encoding="UTF-8"?>
<svg width="16px" height="20px" viewBox="0 0 16 20" version="1.1" xmlns="http://www.w3.org/2000/svg" xmlns:xlink="http://www.w3.org/1999/xlink">
    <!-- Generator: sketchtool 58 (101010) - https://sketch.com -->
    <title>CBA2B5A8-89D9-4DA0-BDDC-45541D3B4522</title>
    <desc>Created with sketchtool.</desc>
    <g id="Total-Flow" stroke="none" stroke-width="1" fill="none" fill-rule="evenodd">
        <g id="3.0-Dashboard_Sell-2" transform="translate(-28.000000, -108.000000)" fill="#FFFFFF">
            <g id="Forecast" transform="translate(8.000000, 93.000000)">
                <g id="Group-10" transform="translate(16.000000, 12.000000)">
                    <g id="icon/prediction-icon/24px/prediction" transform="translate(0.000000, 1.000000)">
                        <path d="M13.0680412,21.1508471 C13.3030928,21.1508471 13.4969072,21.342723 13.4969072,21.5754236 C13.4969072,21.7822685 13.3470281,21.9568569 13.1457412,21.9931007 L13.0680412,22 L10.9360825,22 C10.7010309,22 10.5072165,21.8122066 10.5072165,21.5754236 C10.5072165,21.3685786 10.6570956,21.1939902 10.8583825,21.1577464 L10.9360825,21.1508471 L13.0680412,21.1508471 Z M13.7154639,19.5505205 C13.9505155,19.5505205 14.1443299,19.7423964 14.1443299,19.975097 C14.1443299,20.1819419 13.9944508,20.3565303 13.7931639,20.3927741 L13.7154639,20.3996734 L10.2845361,20.3996734 C10.0494845,20.3996734 9.8556701,20.21188 9.8556701,19.975097 C9.8556701,19.768252 10.0055492,19.5936636 10.2068361,19.5574198 L10.2845361,19.5505205 L13.7154639,19.5505205 Z M15.4061856,7.10716473 C16.3793814,8.029802 16.9154639,9.27903654 16.9154639,10.6140029 C16.9154639,11.7244336 16.5443299,12.7695448 15.8474227,13.63911 C14.7216495,15.0353133 14.1278351,16.6193101 14.1278351,18.2196367 C14.1278351,18.2196367 14.2356014,18.8739924 13.8007044,18.9612399 L13.6989691,18.9708104 L10.3010309,18.9708104 C9.76082474,18.9708104 9.87216495,18.2196367 9.87216495,18.2196367 C9.87216495,16.5825679 9.28659794,14.9863237 8.22268041,13.7207593 C7.48453608,12.8471117 7.08041237,11.736681 7.08450483,10.597673 C7.09278351,8.02571953 9.20824742,5.85384772 11.8020619,5.75178608 C13.1546392,5.70279649 14.4329897,6.18044499 15.4061856,7.10716473 Z M12.0776277,6.59885161 L11.8391753,6.60093897 C9.69896907,6.68667075 7.95463918,8.47887324 7.94635402,10.6017555 C7.94226804,11.5407226 8.27628866,12.4551949 8.88247423,13.1777914 C9.98471801,14.4880228 10.6267042,16.1164887 10.7190458,17.8045173 L10.7298969,18.1216575 L13.2701031,18.1216575 C13.2948454,16.3580323 13.9505155,14.6270667 15.1752577,13.1083895 C15.7525773,12.393958 16.0536082,11.5325577 16.057732,10.6140029 C16.057732,9.51173709 15.6164948,8.48295571 14.8123711,7.7195346 C14.1266568,7.06517365 13.2531033,6.68075534 12.3137627,6.60998466 L12.0776277,6.59885161 Z M18.0907216,9.49540723 L19.571134,9.49540723 C19.8061856,9.49540723 20,9.68728312 20,9.91998367 C20,10.1268286 19.8501209,10.301417 19.648834,10.3376608 L19.571134,10.3445601 L18.0907216,10.3445601 C17.8556701,10.3445601 17.6618557,10.1526842 17.6618557,9.91998367 C17.6618557,9.71313874 17.8117348,9.53855032 18.0130217,9.50230654 L18.0907216,9.49540723 L19.571134,9.49540723 Z M5.90927835,9.49540723 C6.14845361,9.49540723 6.33814433,9.68728312 6.33814433,9.91998367 C6.33814433,10.1526842 6.14845361,10.3445601 5.90927835,10.3445601 L5.90927835,10.3445601 L4.42886598,10.3445601 C4.19381443,10.3445601 4,10.1526842 4,9.91998367 C4,9.68728312 4.18969072,9.49540723 4.42886598,9.49540723 L4.42886598,9.49540723 Z M6.88062983,4.26800112 L6.94845361,4.32292305 L7.99587629,5.35986936 C8.16494845,5.52316799 8.16494845,5.79261074 7.99587629,5.95999184 C7.85154639,6.10287814 7.62512887,6.12073893 7.4575145,6.0135742 L7.38969072,5.95999184 L6.34226804,4.92304552 C6.17319588,4.75974689 6.17731959,4.49030414 6.34226804,4.32292305 C6.48659794,4.17646458 6.71301546,4.15815728 6.88062983,4.26800112 Z M17.657732,4.31884058 C17.8056701,4.46529904 17.8241624,4.68989845 17.7132088,4.85315721 L17.657732,4.91896305 L16.6103093,5.95590937 C16.4453608,6.12329047 16.1731959,6.119208 16.0041237,5.95590937 C15.8561856,5.81302307 15.8376933,5.58887018 15.9486469,5.42293229 L16.0041237,5.3557869 L17.0515464,4.31884058 C17.2164948,4.15145948 17.4886598,4.15145948 17.657732,4.31884058 Z M12,2 C12.2089347,2 12.385287,2.14837999 12.421897,2.3476536 L12.428866,2.42457644 L12.428866,3.89018167 C12.428866,4.12288222 12.2391753,4.31475811 12,4.31475811 C11.7873998,4.31475811 11.6138984,4.16637812 11.5779673,3.96710451 L11.571134,3.89018167 L11.571134,2.42457644 C11.571134,2.19187589 11.7649485,2 12,2 Z" id="Combined-Shape"></path>
                    </g>
                </g>
            </g>
        </g>
    </g>
</svg>