<?xml version="1.0" encoding="UTF-8"?>
<svg width="11px" height="16px" viewBox="0 0 11 16" version="1.1" xmlns="http://www.w3.org/2000/svg" xmlns:xlink="http://www.w3.org/1999/xlink">
    <!-- Generator: sketchtool 58 (101010) - https://sketch.com -->
    <title>2B75FB59-2F1E-4B3E-82D2-AAE453E8A9EE</title>
    <desc>Created with sketchtool.</desc>
    <g id="Total-Flow" stroke="none" stroke-width="1" fill="none" fill-rule="evenodd">
        <g id="1.1-Create-Account" transform="translate(-322.000000, -249.000000)" fill="#0048A8">
            <g id="Field" transform="translate(66.000000, 213.000000)">
                <g id="icon/location-icon/16px/select_state" transform="translate(253.000000, 36.000000)">
                    <g id="pin" transform="translate(3.000000, 0.000000)">
                        <path d="M5.5,0 C2.46735749,0 0,2.39259375 0,5.33334375 C0,6.21615625 0.227615766,7.09146875 0.660320976,7.86784375 L5.19923008,15.828125 C5.25965477,15.93425 5.37480005,16 5.5,16 C5.62519995,16 5.74034523,15.93425 5.80076992,15.828125 L10.3413548,7.86521875 C10.7723842,7.09146875 11,6.216125 11,5.3333125 C11,2.39259375 8.53264251,0 5.5,0 Z M5.5,8 C3.98367874,8 2.75001611,6.80371875 2.75001611,5.33334375 C2.75001611,3.86296875 3.98367874,2.6666875 5.5,2.6666875 C7.01632126,2.6666875 8.24998389,3.86296875 8.24998389,5.33334375 C8.24998389,6.80371875 7.01632126,8 5.5,8 Z" id="Shape"></path>
                    </g>
                </g>
            </g>
        </g>
    </g>
</svg>