<?xml version="1.0" encoding="UTF-8"?>
<svg width="40px" height="40px" viewBox="0 0 40 40" version="1.1" xmlns="http://www.w3.org/2000/svg" xmlns:xlink="http://www.w3.org/1999/xlink">
    <!-- Generator: sketchtool 58 (101010) - https://sketch.com -->
    <title>D9E162F5-3445-4EF4-9849-9A9EED00D976</title>
    <desc>Created with sketchtool.</desc>
    <g id="Total-Flow" stroke="none" stroke-width="1" fill="none" fill-rule="evenodd">
        <g id="3.0-Dashboard_Sell-2" transform="translate(-32.000000, -624.000000)">
            <g id="Latest-Transactions" transform="translate(8.000000, 562.000000)">
                <g id="Group-5" transform="translate(0.000000, 35.000000)">
                    <g id="buy-copy-2-icon/40px/sell" transform="translate(24.000000, 27.000000)">
                        <rect id="Rectangle" fill="#3C4B6F" transform="translate(20.000000, 20.000000) scale(-1, -1) translate(-20.000000, -20.000000) " x="0" y="0" width="40" height="40" rx="20"></rect>
                        <path d="M25.5219418,12.4251676 C26.0888319,11.8582775 27.0079423,11.8582775 27.5748324,12.4251676 C28.1417225,12.9920577 28.1417225,13.9111681 27.5748324,14.4780582 L27.5748324,14.4780582 L16.956,25.096 L26.0322581,25.0967742 C26.7868027,25.0967742 27.4068858,25.6724723 27.4772259,26.4085871 L27.483871,26.5483871 C27.483871,27.3500908 26.8339617,28 26.0322581,28 L26.0322581,28 L13.4516129,28 C12.6499092,28 12,27.3500908 12,26.5483871 L12,26.5483871 L12,14.9354839 C12,14.1337802 12.6499092,13.483871 13.4516129,13.483871 C14.2533166,13.483871 14.9032258,14.1337802 14.9032258,14.9354839 L14.9032258,14.9354839 L14.903,23.043 Z" id="Combined-Shape" fill="#FFFFFF" fill-rule="nonzero"></path>
                    </g>
                </g>
            </g>
        </g>
    </g>
</svg>