<?xml version="1.0" encoding="UTF-8"?>
<svg width="20px" height="16px" viewBox="0 0 20 16" version="1.1" xmlns="http://www.w3.org/2000/svg" xmlns:xlink="http://www.w3.org/1999/xlink">
    <!-- Generator: sketchtool 58 (101010) - https://sketch.com -->
    <title>D04ECFEC-3355-432C-8DF9-91CDB354FC98</title>
    <desc>Created with sketchtool.</desc>
    <g id="Total-Flow" stroke="none" stroke-width="1" fill="none" fill-rule="evenodd">
        <g id="8.0-Add-resources" transform="translate(-50.000000, -199.000000)" fill="#0048A8">
            <g id="Group-4" transform="translate(48.000000, 195.000000)">
                <g id="icon/solar-power">
                    <path d="M14.5876803,11.6521739 L15.2126804,15.2298137 L12.5952381,15.2298137 L12.5952381,18.8074534 L15.2751792,18.8074534 C15.4358143,18.8074534 15.5714286,18.9421843 15.5714286,19.1083833 L15.5714286,19.6990701 C15.5714286,19.8678202 15.4380875,20 15.2736027,20 L8.7263972,20 C8.56174679,20 8.42857143,19.8652691 8.42857143,19.6990701 L8.42857143,19.1083833 C8.42857143,18.9396332 8.56120676,18.8074534 8.72482071,18.8074534 L11.4047619,18.8074534 L11.4047619,15.2298137 L8.78731967,15.2298137 L9.41231967,11.6521739 L14.5876803,11.6521739 Z M20.9612212,11.6521739 L21.9093344,13.7931499 C22.2095446,14.4710675 21.7324637,15.1304348 20.9460813,15.1304348 L16.226064,15.1304348 L15.5714286,11.6521739 L20.9612212,11.6521739 Z M8.42857143,11.6521739 L7.77398991,15.1304348 L3.05436137,15.1304348 C2.26564887,15.1304348 1.79026584,14.4727307 2.09118775,13.7931499 L3.03922296,11.6521739 L8.42857143,11.6521739 Z M9.14285714,7.47826087 L8.59015155,10.2608696 L3.42857143,10.2608696 L4.72905519,7.47826087 L9.14285714,7.47826087 Z M13.6737909,7.47826087 L14.1428571,10.2608696 L9.85714286,10.2608696 L10.3262091,7.47826087 L13.6737909,7.47826087 Z M19.2709448,7.47826087 L20.5714286,10.2608696 L15.4098484,10.2608696 L14.8571429,7.47826087 L19.2709448,7.47826087 Z M9.14285714,4 L8.72700223,6.08695652 L4.85714286,6.08695652 L5.57075583,4.56492661 C5.72484053,4.23628678 6.12742325,4 6.53063882,4 L9.14285714,4 Z M13.6919685,4 L14.1428571,6.08695652 L10.5714286,6.08695652 L11.0223172,4 L13.6919685,4 Z M17.4693613,4 C17.8748873,4 18.2740492,4.23391887 18.4292442,4.56492661 L19.1428571,6.08695652 L15.2729978,6.08695652 L14.8571429,4 L17.4693613,4 Z" id="Combined-Shape"></path>
                </g>
            </g>
        </g>
    </g>
</svg>